PathFileType	4	(X/Y/Z)	C:/Users/opensim2020/Desktop/walking_exp_matlab/subject06_walking17_straight_02.trc																																																																																																																																					
DataRate	CameraRate	NumFrames	NumMarkers	Units	OrigDataRate	OrigDataStartFrame	OrigNumFrames																																																																																																																																	
100	100	6	45	mm	100	2365	334																																																																																																																																	
Frame#	Time	LFHD			RFHD			LBHD			RBHD			C7			T10			CLAV			STRN			RBAK			LSHO			LUPA			LELB			LFRM			LWRA			LWRB			LFIN			RSHO			RUPA			RELB			RFRM			RWRA			RWRB			RFIN			LASI			RASI			LPSI			RPSI			LTHI			LKNE			LTIB			LANK			LHEE			LTOE			RTHI			RKNE			RTIB			RANK			RHEE			RTOE			*39			*40			*41			*42			*43			*44		
		X1	Y1	Z1	X2	Y2	Z2	X3	Y3	Z3	X4	Y4	Z4	X5	Y5	Z5	X6	Y6	Z6	X7	Y7	Z7	X8	Y8	Z8	X9	Y9	Z9	X10	Y10	Z10	X11	Y11	Z11	X12	Y12	Z12	X13	Y13	Z13	X14	Y14	Z14	X15	Y15	Z15	X16	Y16	Z16	X17	Y17	Z17	X18	Y18	Z18	X19	Y19	Z19	X20	Y20	Z20	X21	Y21	Z21	X22	Y22	Z22	X23	Y23	Z23	X24	Y24	Z24	X25	Y25	Z25	X26	Y26	Z26	X27	Y27	Z27	X28	Y28	Z28	X29	Y29	Z29	X30	Y30	Z30	X31	Y31	Z31	X32	Y32	Z32	X33	Y33	Z33	X34	Y34	Z34	X35	Y35	Z35	X36	Y36	Z36	X37	Y37	Z37	X38	Y38	Z38	X39	Y39	Z39	X40	Y40	Z40	X41	Y41	Z41	X42	Y42	Z42	X43	Y43	Z43	X44	Y44	Z44	X45	Y45	Z45
																																																																																																																																								
209	2.08	124.15105	1669.16089	-1493.3053	113.16095	1649.05908	-1362.89783	-7.05756	1611.66699	-1508.80933	-16.9281	1597.42163	-1380.55298	-8.46858	1452.14929	-1455.68579	-46.1554	1124.70642	-1452.54749	101.48875	1375.26941	-1452.1333	140.17186	1198.87268	-1460.79126	-81.20851	1282.59729	-1377.21948	54.38293	1405.85559	-1614.56409	75.43584	1203.30286	-1683.82581	87.08842	1089.94141	-1691.99585	172.12564	965.03375	-1690.70752	279.47699	908.54187	-1636.27441	227.7794	863.79755	-1655.75354	303.32816	815.19397	-1645.47778	57.18394	1405.724	-1291.35107	12.46742	1206.13855	-1207.69043	14.8578	1084.35559	-1198.10828	18.67741	964.02118	-1180.78113	63.47748	818.29095	-1209.81274	8.77577	826.76648	-1170.27185	35.88431	746.2724	-1167.42395	128.54988	955.85577	-1556.26233	129.91992	971.77295	-1336.24426	-27.55584	989.37201	-1527.41772	-21.04907	999.15619	-1359.93518	28.70639	642.48804	-1605.40295	5.58486	479.267	-1586.17529	-157.57474	278.74927	-1586.87329	-253.83434	133.68689	-1548.18835	-298.35498	141.55673	-1505.35657	-145.16888	39.80924	-1536.77405	109.80857	642.63171	-1273.40906	138.25459	522.63507	-1303.68494	124.48095	255.71027	-1307.29675	138.45981	71.24428	-1355.09924	105.39789	45.91649	-1404.90808	293.64221	41.15419	-1351.69934	18.00548	1700.70215	-1440.49475	NaN	NaN	NaN	NaN	NaN	NaN	NaN	NaN	NaN	NaN	NaN	NaN	NaN	NaN	NaN
210	2.09	130.85374	1669.86536	-1491.64856	120.0095	1649.90063	-1361.20947	-0.36793	1612.25696	-1506.91675	-10.00243	1598.10718	-1378.65369	-1.5862	1452.80933	-1453.48853	-39.16542	1125.36279	-1450.28979	108.37482	1375.99817	-1450.18896	147.16846	1199.57092	-1458.90649	-73.99168	1283.19849	-1374.47925	60.69473	1406.49194	-1612.61487	81.03858	1203.82751	-1681.77905	92.57243	1090.54529	-1690.02979	176.32198	964.78931	-1689.42346	282.68076	906.3833	-1634.83545	230.77731	862.47858	-1655.57043	305.73328	813.07391	-1645.3927	64.588	1406.62012	-1289.36731	20.40745	1207.01794	-1205.69946	23.43274	1085.1665	-1196.19434	27.7733	964.82642	-1178.98645	72.74738	819.28656	-1208.57153	18.50065	827.40216	-1168.74744	46.09698	747.125	-1166.16309	135.46803	956.81433	-1554.61853	137.01671	972.29504	-1334.67175	-20.8402	989.92633	-1525.77222	-14.11413	999.94299	-1358.36218	38.81866	642.55865	-1604.71436	18.78382	478.95126	-1586.23743	-148.259	282.31055	-1586.31372	-247.85406	139.8045	-1547.97131	-291.35767	149.18164	-1504.64294	-144.45158	40.21317	-1536.82947	115.26455	643.04285	-1272.43555	142.1888	522.65137	-1302.38928	126.30545	255.58707	-1306.64783	138.88737	71.22729	-1355.11975	105.56161	46.01361	-1404.83789	293.96579	40.62609	-1351.65063	24.67529	1701.40051	-1438.73657	NaN	NaN	NaN	NaN	NaN	NaN	NaN	NaN	NaN	NaN	NaN	NaN	NaN	NaN	NaN
211	2.1	137.46965	1670.46021	-1490.1178	126.84341	1650.65442	-1359.62622	6.38444	1612.66248	-1505.02393	-3.22155	1598.73877	-1376.92896	5.16705	1453.39294	-1451.3678	-32.42968	1125.99438	-1448.11646	115.20508	1376.5835	-1448.35645	154.02988	1200.1593	-1457.05469	-66.85828	1283.83167	-1371.76184	66.90237	1407.06799	-1610.69629	86.23745	1204.24683	-1679.91931	97.74119	1091.00732	-1688.17505	180.44081	964.45563	-1688.4657	285.62024	904.11768	-1633.42566	233.47447	861.12982	-1655.41052	307.95682	810.91559	-1645.47766	71.97435	1407.45264	-1287.4707	28.26887	1207.72351	-1203.52271	31.96735	1085.85974	-1194.14307	37.09048	965.55249	-1177.15686	83.09094	820.43256	-1206.95752	28.35507	828.005	-1167.16235	56.51498	747.92206	-1164.72327	142.05498	957.57574	-1553.01123	143.94897	972.80219	-1333.0542	-14.22984	990.36987	-1524.18823	-7.36461	1000.52814	-1356.77966	49.03776	642.53632	-1604.07458	32.34141	478.66235	-1586.26917	-138.28636	286.05725	-1585.70239	-241.19316	146.03403	-1547.78723	-283.49808	156.94511	-1503.71985	-142.55347	40.77423	-1536.39807	120.41055	643.57928	-1271.62109	146.07793	522.58081	-1301.07581	128.25731	255.48032	-1305.91382	139.19888	71.17974	-1355.10352	105.75849	46.08273	-1404.87109	294.37686	40.2449	-1351.58826	31.37483	1701.94678	-1437.08582	NaN	NaN	NaN	NaN	NaN	NaN	NaN	NaN	NaN	NaN	NaN	NaN	NaN	NaN	NaN
212	2.11	144.04594	1670.92126	-1488.61206	133.60313	1651.28027	-1358.09705	12.92368	1613.01367	-1503.48071	3.56927	1599.21167	-1375.1427	11.86755	1453.80676	-1449.24561	-25.77011	1126.54407	-1446.06335	121.94648	1377.07629	-1446.60986	160.66394	1200.63672	-1455.224	-59.84117	1284.40515	-1369.08264	72.96426	1407.56421	-1608.82837	91.1907	1204.65088	-1678.19507	102.71809	1091.44202	-1686.37012	184.18599	963.89075	-1687.12024	288.34387	901.7207	-1632.03528	236.0213	859.85345	-1655.32532	309.83099	808.64825	-1645.7395	79.29985	1408.13977	-1285.61194	36.40358	1208.38599	-1201.50757	40.53355	1086.4303	-1192.10974	46.35955	966.12799	-1175.33997	92.61971	821.211	-1205.67712	38.38743	828.51276	-1165.5304	67.00681	748.53101	-1163.47498	148.44783	958.24683	-1551.43042	150.67046	973.1875	-1331.48376	-7.76888	990.71686	-1522.79956	-0.74588	1001.22766	-1355.25464	59.37756	642.45892	-1603.46265	46.05028	478.36465	-1586.22107	-127.71053	289.89636	-1584.95154	-233.39526	152.18661	-1547.46533	-274.67462	164.63492	-1502.75476	-141.44109	40.90274	-1536.45642	125.59182	643.89899	-1270.52625	150.25957	522.51294	-1299.82312	130.16162	255.32391	-1305.1405	139.53442	71.14989	-1355.08264	105.81841	46.15335	-1404.80542	294.62042	39.85835	-1351.51392	37.97649	1702.40332	-1435.54858	NaN	NaN	NaN	NaN	NaN	NaN	NaN	NaN	NaN	NaN	NaN	NaN	NaN	NaN	NaN
213	2.12	150.65492	1671.30518	-1487.1991	140.23349	1651.83093	-1356.6228	19.51453	1613.28052	-1501.77307	10.27309	1599.63501	-1373.52783	18.57735	1454.27576	-1447.24683	-19.26083	1127.02661	-1444.17444	128.6268	1377.49805	-1444.91125	167.28716	1200.98706	-1453.52905	-53.00851	1284.95654	-1366.59692	78.95769	1407.98108	-1606.98486	96.05024	1205.00183	-1676.49902	107.43051	1091.76721	-1684.56543	187.70151	963.44427	-1686.11279	290.76144	899.18689	-1630.7041	238.34386	858.32654	-1655.75391	311.6004	806.37769	-1646.18018	86.58826	1408.7229	-1283.82117	44.32751	1208.87524	-1199.29456	49.15066	1086.96179	-1190.1228	55.68327	966.64069	-1173.47058	103.13495	822.20642	-1204.05115	48.5513	829.06287	-1163.81335	77.7608	749.10846	-1162.09778	155.01863	958.80548	-1549.98901	157.30762	973.53693	-1329.94995	-1.47142	990.99744	-1521.32654	5.84822	1001.87146	-1353.91858	69.82219	642.34918	-1602.83752	59.91715	478.20508	-1585.95996	-116.37433	293.67166	-1583.89087	-224.97461	158.31761	-1547.24414	-265.07358	172.16516	-1501.87292	-139.08543	42.42264	-1536.24036	130.75671	644.08728	-1269.21545	154.15648	522.31555	-1298.51978	132.08525	255.18599	-1304.37207	139.68484	71.13902	-1354.80786	106.12949	46.15155	-1405.04382	294.87219	39.51434	-1351.36523	44.54773	1702.77661	-1434.03845	NaN	NaN	NaN	NaN	NaN	NaN	NaN	NaN	NaN	NaN	NaN	NaN	NaN	NaN	NaN
214	2.13	157.16318	1671.62	-1485.77893	146.92905	1652.30505	-1355.20959	26.08867	1613.5105	-1500.21985	16.95192	1600.01135	-1371.88147	25.25052	1454.6731	-1445.36621	-12.89163	1127.47937	-1442.33655	135.12473	1377.80798	-1443.27136	173.66826	1201.26819	-1451.93848	-46.29568	1285.48682	-1364.21802	84.91621	1408.34705	-1605.2959	100.86909	1205.24146	-1674.75488	111.95599	1091.99121	-1682.83618	190.99072	962.89722	-1685.08899	292.95816	896.56415	-1629.48779	240.48848	856.81097	-1656.12976	313.11084	804.00043	-1646.77686	93.75546	1409.16528	-1282.15088	52.76128	1209.34705	-1197.27563	57.79095	1087.34412	-1188.03687	65.18219	967.03241	-1171.56348	113.35574	822.97369	-1202.58435	58.97452	829.29004	-1162.08435	88.83041	749.67755	-1160.57776	161.4807	959.29102	-1548.60986	163.76947	973.81207	-1328.42676	4.74229	991.19647	-1519.87439	12.2707	1002.44135	-1352.40601	80.16959	642.23267	-1602.17322	73.69133	478.09576	-1585.54224	-104.49689	297.14523	-1582.89478	-215.99283	164.27429	-1547.17957	-254.97736	179.40784	-1500.94116	-136.27965	44.06308	-1536.59131	135.67867	644.14886	-1267.9917	157.79877	522.10632	-1297.27332	133.8364	255.02449	-1303.75427	139.96803	71.10039	-1354.83301	106.19211	46.17131	-1405.01123	295.07526	39.13723	-1351.2251	51.14215	1703.11646	-1432.60376	NaN	NaN	NaN	NaN	NaN	NaN	NaN	NaN	NaN	NaN	NaN	NaN	NaN	NaN	NaN
